<svg xmlns="http://www.w3.org/2000/svg" width="128" height="128" viewBox="0 0 64 64">
  <!-- Corpo do documento -->
  <path fill="#4285F4" d="M12 4h28l12 12v36a4 4 0 0 1-4 4H12a4 4 0 0 1-4-4V8a4 4 0 0 1 4-4z" />

  <!-- Dobra do canto -->
  <path fill="#2f6fe0" d="M40 4v12h12l-12-12z" />

  <!-- Borda branca -->
  <path fill="none" stroke="#ffffff" stroke-width="2"
    d="M12 4h28l12 12v36a4 4 0 0 1-4 4H12a4 4 0 0 1-4-4V8a4 4 0 0 1 4-4z" />

  <!-- Linhas internas de texto -->
  <line x1="18" y1="24" x2="46" y2="24" stroke="#ffffff" stroke-width="2" stroke-linecap="round" />
  <line x1="18" y1="30" x2="46" y2="30" stroke="#ffffff" stroke-width="2" stroke-linecap="round" />
  <line x1="18" y1="36" x2="38" y2="36" stroke="#ffffff" stroke-width="2" stroke-linecap="round" />
  <line x1="18" y1="42" x2="32" y2="42" stroke="#ffffff" stroke-width="2" stroke-linecap="round" />
</svg>