<svg id="visual" viewBox="0 0 3840 2160" width="3840" height="2160" xmlns="http://www.w3.org/2000/svg" xmlns:xlink="http://www.w3.org/1999/xlink" version="1.1"><g transform="translate(1864.4262997256728 1143.9550788279748)"><path d="M396 -633.6C461.3 -497.6 426.6 -312.5 536.5 -136.1C646.4 40.3 901 207.9 967.9 411.1C1034.9 614.4 914.2 853.3 721.6 862.5C529 871.8 264.5 651.4 59.7 569.3C-145.2 487.2 -290.4 543.3 -477.4 532.3C-664.4 521.2 -893.3 442.9 -874.3 325.6C-855.2 208.3 -588.1 52 -533 -190.4C-477.9 -432.8 -634.8 -761.3 -581.3 -901C-527.8 -1040.8 -263.9 -991.9 -49.3 -924.1C165.4 -856.3 330.7 -769.5 396 -633.6" fill="#AFD5F9"></path></g></svg>