<svg xmlns="http://www.w3.org/2000/svg" width="64" height="64" viewBox="0 0 24 24">
  <!-- Corpo do documento -->
  <path fill="#EA4335" d="M6 2a2 2 0 0 0-2 2v16c0 1.1.9 2 2 2h12a2 2 0 0 0 2-2V8l-6-6H6z"/>

  <!-- Dobra do canto -->
  <path fill="#D93025" d="M14 2v6h6l-6-6z"/>

  <!-- Texto "PDF" em branco -->
  <text x="12" y="17" text-anchor="middle" fill="#ffffff" font-size="6" font-family="Arial, sans-serif" font-weight="bold">PDF</text>

  <!-- Borda branca -->
  <path d="M6 2h8l6 6v12a2 2 0 0 1-2 2H6a2 2 0 0 1-2-2V4a2 2 0 0 1 2-2z" fill="none" stroke="#ffffff" stroke-width="0.8"/>
</svg>
